<svg width="364" height="182" viewBox="0 0 364 182" fill="none" xmlns="http://www.w3.org/2000/svg">
<path d="M322.52 138.072C324.797 131.766 327.074 125.461 329.401 119.18C329.802 118.104 329.827 117.178 329.401 116.077C324.197 102.715 319.017 89.3032 313.862 75.9162C313.737 75.5659 313.637 75.2156 313.487 74.7402C316.565 74.7402 319.517 74.7151 322.47 74.7902C322.795 74.7902 323.221 75.4408 323.396 75.8662C325.873 82.5221 328.325 89.2281 330.777 95.8841C331.953 99.0869 333.13 102.29 334.306 105.493C334.456 105.918 334.656 106.318 334.906 106.969C336.508 102.49 338.034 98.2612 339.535 94.0574C341.712 87.952 343.914 81.8465 346.066 75.716C346.341 74.9654 346.692 74.7151 347.492 74.7151C350.27 74.7652 353.047 74.7402 356 74.7402C355.575 75.8912 355.199 76.8921 354.799 77.893C347.292 97.5105 339.81 117.153 332.304 136.771C332.129 137.196 331.953 137.621 331.778 138.047C328.701 138.072 325.598 138.072 322.52 138.072Z" fill="white"/>
<path d="M44.7967 93.4815C39.3419 93.4815 34.0371 93.4815 28.6823 93.4815C28.6823 90.8041 28.6823 88.2017 28.6823 85.5494C37.1149 85.5494 45.4724 85.5494 53.8799 85.5494C53.8799 96.1338 53.8799 106.618 53.8799 117.203C51.4527 117.203 49.0505 117.203 46.5483 117.203C46.2731 114.775 45.9978 112.373 45.7476 110.071C44.9219 110.797 44.0961 111.548 43.2704 112.273C39.3919 115.726 34.8128 117.503 29.6582 117.778C23.5778 118.103 17.7476 117.153 12.5679 113.725C5.66175 109.17 1.8083 102.615 0.557181 94.5074C-0.418692 88.3018 -0.218516 82.0963 2.00848 76.1409C5.93699 65.6566 13.6189 59.9014 24.7538 58.7504C30.559 58.1499 36.164 58.7754 41.3937 61.5279C47.8745 64.9559 51.803 70.3358 53.2293 77.5172C53.3043 77.8925 53.3044 78.2678 53.3794 78.8183C52.0282 78.8183 50.702 78.8183 49.3758 78.8183C47.7994 78.8183 46.198 78.7933 44.6216 78.8434C43.8209 78.8684 43.4956 78.5931 43.2454 77.7924C41.4688 72.0373 37.6654 68.334 31.71 67.283C21.8012 65.5064 13.5688 70.6861 10.9415 80.4698C8.98972 87.8014 9.29 95.0579 13.4687 101.664C17.122 107.444 22.6019 109.771 29.3579 109.396C33.2614 109.17 36.8146 108.044 39.8423 105.517C43.5456 102.439 44.8468 98.3608 44.7967 93.4815Z" fill="white"/>
<path d="M205.14 74.7647C208.068 74.7647 210.87 74.7647 213.648 74.7647C213.923 74.7647 214.223 74.8148 214.549 74.8398C217.751 85.5494 220.929 96.2089 224.132 106.893C224.207 106.893 224.307 106.893 224.382 106.918C224.833 105.442 225.283 103.991 225.708 102.515C228.361 93.6566 231.013 84.8237 233.616 75.9408C233.891 74.9899 234.291 74.7147 235.242 74.7647C237.169 74.8398 239.07 74.8398 240.997 74.7647C241.973 74.7147 242.373 75.04 242.649 75.9658C245.376 85.6495 248.154 95.3331 250.906 105.017C251.081 105.642 251.281 106.293 251.557 107.194C251.757 106.643 251.907 106.343 252.007 106.018C255.085 96.0338 258.188 86.0498 261.24 76.0659C261.516 75.1401 261.866 74.7147 262.942 74.7647C265.519 74.8648 268.071 74.7898 270.824 74.7898C269.673 78.2429 268.597 81.5208 267.521 84.7737C264.093 95.1079 260.64 105.442 257.262 115.826C256.861 117.053 256.336 117.403 255.085 117.353C252.432 117.253 249.755 117.328 247.028 117.328C244.075 107.819 241.147 98.3608 238.095 88.5771C237.819 89.2277 237.644 89.603 237.519 89.9784C234.742 98.6611 231.939 107.319 229.187 116.027C228.861 117.028 228.436 117.378 227.36 117.353C224.858 117.278 222.355 117.303 219.853 117.328C219.228 117.328 218.902 117.203 218.677 116.527C214.248 102.865 209.794 89.2277 205.34 75.5905C205.24 75.3653 205.215 75.1651 205.14 74.7647Z" fill="white"/>
<path d="M302.702 80.5952C303.053 78.6685 303.403 76.7668 303.753 74.815C306.356 74.815 308.833 74.815 311.46 74.815C311.46 88.9527 311.46 103.04 311.46 117.303C309.033 117.303 306.631 117.328 304.229 117.278C304.004 117.278 303.628 116.778 303.553 116.477C303.228 114.751 303.003 113.024 302.702 111.173C302.452 111.348 302.227 111.448 302.102 111.623C297.873 117.003 292.168 118.404 285.687 117.678C276.554 116.652 269.473 109.521 268.722 98.8615C268.297 92.7561 269.147 87.0009 272.876 81.8964C279.657 72.6631 292.543 72.6131 298.724 77.067C300.15 78.0679 301.326 79.3441 302.702 80.5952ZM290.967 110.297C294.67 110.222 298.248 108.52 300.4 104.717C303.653 98.9866 303.678 92.9813 300.25 87.3763C295.571 79.6694 284.336 80.0197 279.807 87.8517C277.88 91.2047 277.555 94.8579 277.93 98.6113C278.706 105.492 283.76 110.297 290.967 110.297Z" fill="white"/>
<path d="M90.7879 80.7706C91.1632 78.6937 91.5135 76.792 91.8638 74.8152C94.4161 74.8152 96.9434 74.8152 99.5457 74.8152C99.5457 88.9529 99.5457 103.015 99.5457 117.178C96.9934 117.178 94.4161 117.178 91.7637 117.178C91.4384 115.201 91.1131 113.2 90.7628 111.023C89.9371 111.898 89.2865 112.699 88.5609 113.4C84.4072 117.403 79.3026 118.279 73.8477 117.654C64.1891 116.528 57.433 108.996 56.8075 98.5114C56.5322 94.0574 56.8075 89.6535 58.8093 85.5749C62.3624 78.3684 68.0926 74.4649 76.2248 74.2397C80.9541 74.0896 85.2329 75.1906 88.736 78.5436C89.4116 79.2192 90.0122 79.9448 90.7879 80.7706ZM90.8379 95.3086C90.6627 94.3077 90.5126 92.5811 90.0622 90.9547C88.5108 85.4247 84.3321 82.1218 78.7521 81.8215C73.6726 81.5713 69.1685 84.3738 67.2168 89.3783C65.24 94.4328 65.3401 99.5374 68.0175 104.342C72.1462 111.723 82.7056 112.424 87.8602 105.743C90.0622 102.865 90.7128 99.5373 90.8379 95.3086Z" fill="white"/>
<path d="M125.644 74.8152C128.246 74.8152 130.749 74.8152 133.326 74.8152C133.651 76.5417 133.976 78.2432 134.327 80.0949C134.652 79.8196 134.877 79.6445 135.052 79.4443C138.105 76.0663 142.009 74.5149 146.463 74.2897C149.615 74.1145 152.718 74.3898 155.646 75.6659C161.376 78.1932 164.078 82.8473 164.829 88.8277C165.029 90.5042 165.104 92.2307 165.104 93.9323C165.129 101.189 165.129 108.445 165.129 115.702C165.129 116.202 165.129 116.678 165.129 117.253C162.102 117.253 159.199 117.253 156.121 117.253C156.121 116.778 156.121 116.277 156.121 115.802C156.121 108.67 156.146 101.539 156.096 94.4077C156.096 92.8813 155.921 91.3299 155.621 89.8286C154.595 84.5489 151.092 81.8214 145.687 81.9716C139.907 82.1217 135.803 85.85 134.827 91.9054C134.602 93.2567 134.527 94.6329 134.502 96.0091C134.477 102.59 134.477 109.171 134.477 115.777C134.477 116.227 134.477 116.678 134.477 117.228C131.499 117.228 128.597 117.228 125.594 117.228C125.644 103.115 125.644 89.0279 125.644 74.8152Z" fill="white"/>
<path d="M205.415 87.7264C202.413 87.7264 199.585 87.7264 197.233 87.7264C196.032 86.075 195.181 84.4485 193.93 83.2725C191.878 81.3457 189.151 80.9954 186.448 81.0955C184.322 81.1706 182.22 81.5459 180.393 82.8221C179.292 83.5977 178.516 84.5986 178.341 85.9749C178.016 88.4521 179.117 90.0785 181.844 90.7792C183.846 91.2796 185.948 91.4297 188 91.8301C191.553 92.5307 195.131 93.1062 198.609 94.0821C202.838 95.2582 205.415 98.1858 206.041 102.59C206.667 107.044 205.365 110.822 201.787 113.7C198.734 116.152 195.156 117.353 191.328 117.703C186.724 118.104 182.145 117.878 177.816 116.052C172.886 113.975 169.533 110.547 168.758 105.042C168.708 104.717 168.683 104.391 168.658 104.041C168.658 103.841 168.683 103.641 168.708 103.39C171.585 103.39 174.413 103.39 177.24 103.39C177.29 103.44 177.39 103.491 177.39 103.566C178.216 107.995 181.194 110.021 185.347 110.672C188.3 111.122 191.253 111.047 194.055 109.796C196.708 108.62 197.759 106.593 197.233 103.991C196.933 102.49 196.057 101.439 194.631 101.088C192.053 100.488 189.426 99.9624 186.824 99.562C183.246 99.0115 179.642 98.5861 176.264 97.1849C169.733 94.4575 167.431 87.5263 171.06 81.3958C172.611 78.7934 174.888 76.9418 177.691 75.9159C184.547 73.3636 191.428 73.5137 198.084 76.6665C202.137 78.5933 204.615 81.8712 205.315 86.4002C205.34 86.7756 205.365 87.1759 205.415 87.7264Z" fill="white"/>
<path d="M110.355 82.5716C107.778 82.5716 105.376 82.5716 102.899 82.5716C102.899 79.9442 102.899 77.467 102.899 74.8647C108.304 74.8647 113.733 74.8647 119.288 74.8647C119.288 88.9523 119.288 103.04 119.288 117.203C116.361 117.203 113.458 117.203 110.355 117.203C110.355 111.472 110.355 105.742 110.355 100.012C110.355 94.2821 110.355 88.5269 110.355 82.5716Z" fill="white"/>
<path d="M115.035 58C118.212 58 120.514 60.277 120.514 63.4048C120.514 66.5076 118.187 68.7596 115.009 68.7596C111.832 68.7596 109.53 66.4826 109.555 63.3548C109.53 60.202 111.807 58 115.035 58Z" fill="white"/>
</svg>
